<?xml version="1.0" encoding="UTF-8"?>
<svg id="Camada_2" data-name="Camada 2" xmlns="http://www.w3.org/2000/svg" viewBox="0 0 165.71 170.43">
  <defs>
    <style>
      .cls-1 {
        fill: #fff;
      }

      .cls-2, .cls-3 {
        stroke: #000;
        stroke-width: .25px;
      }

      .cls-2, .cls-3, .cls-4 {
        stroke-miterlimit: 10;
      }

      .cls-3 {
        fill: none;
      }

      .cls-4 {
        stroke: #f07a08;
        stroke-width: 5px;
      }

      .cls-5 {
        fill: #f07a08;
      }
    </style>
  </defs>
  <g id="Camada_4" data-name="Camada 4">
    <g>
      <ellipse class="cls-4" cx="82.86" cy="85.21" rx="80.36" ry="82.71"/>
      <g>
        <path class="cls-1" d="M83.76,29.5c1.18,4.81,2.44,8.86,3.52,12.02,2.24,6.51,3.79,9.4,5.52,11.88,.77,1.1,1.46,1.96,1.96,2.55-1.16,2.44-2.15,4.4-2.85,5.77-.69,1.34-1.33,2.71-2,4.07-.51,1.03-1.11,2.23-1.54,3.96-.13,.52-.21,.97-.26,1.27,0,0,0,0,0,0,0,0-.1,.59-.19,1.23-.06,.46-.3,4.65-.5,10.42,1.73,.42,5.1,1.49,8.22,4.43,2.05,1.92,3.26,3.95,3.96,5.37,1.37-3.16,2.73-6.31,4.1-9.47,.53-1.8,.68-3.32,.71-4.37,0-.18,.06-3.46-1.34-5.87-.29-.49-.64-.96-1.16-1.05-.44-.07-.85,.15-1.47,.5-.49,.27-.86,.56-1.11,.77-.07-.65-.09-1.56,.11-2.63,.18-.96,.48-1.73,.74-2.29,.62-1.2,1.37-1.85,1.82-2.17,1.37-.98,2.87-1.06,4.59-1.16,1.02-.06,1.86,0,2.4,.05,3.59-2.93,6.99-4.57,9.35-5.51,2.06-.82,4.9-1.92,8.81-2.11,2.24-.11,4.13,.11,5.46,.35-2.29,1-5.55,2.69-8.84,5.54-4.27,3.7-7.01,7.32-8.64,11.16-2.5,5.9-4.84,10.74-6.68,14.34-2.38,4.67-3.97,7.39-5.97,10.2-1.39,1.96-2.73,3.84-4.94,6.01-1.71,1.68-4.26,4.14-8.28,5.92-2.22,.98-4.19,1.45-5.53,1.68"/>
        <path class="cls-1" d="M83.76,29.5c-1.18,4.81-2.44,8.86-3.52,12.02-2.24,6.51-3.79,9.4-5.52,11.88-.77,1.1-1.46,1.96-1.96,2.55,1.16,2.44,2.15,4.4,2.85,5.77,.69,1.34,1.33,2.71,2,4.07,.51,1.03,1.11,2.23,1.54,3.96,.13,.52,.21,.97,.26,1.27,0,0,0,0,0,0,0,0,.1,.59,.19,1.23,.06,.46,.3,4.65,.5,10.42-1.73,.42-5.1,1.49-8.22,4.43-2.05,1.92-3.26,3.95-3.96,5.37-1.37-3.16-2.73-6.31-4.1-9.47-.53-1.8-.68-3.32-.71-4.37,0-.18-.06-3.46,1.34-5.87,.29-.49,.64-.96,1.16-1.05,.44-.07,.85,.15,1.47,.5,.49,.27,.86,.56,1.11,.77,.07-.65,.09-1.56-.11-2.63-.18-.96-.48-1.73-.74-2.29-.62-1.2-1.37-1.85-1.82-2.17-1.37-.98-2.87-1.06-4.59-1.16-1.02-.06-1.86,0-2.4,.05-2.18-1.77-5.29-3.88-9.35-5.51-1.83-.73-4.76-1.9-8.81-2.28-2.27-.21-4.19-.11-5.6,.03,2.36,1.14,5.64,3.02,8.98,6.02,4.4,3.96,7.2,7.77,8.64,11.16,2.5,5.9,4.84,10.74,6.68,14.34,2.38,4.67,3.97,7.39,5.97,10.2,1.39,1.96,2.73,3.84,4.94,6.01,1.71,1.68,4.26,4.14,8.28,5.92,2.22,.98,4.19,1.45,5.53,1.68"/>
      </g>
      <ellipse class="cls-1" cx="82.99" cy="86.88" rx="48.21" ry="50.95"/>
      <path class="cls-5" d="M132.81,68.55c1.67,3.8,3.78,9.74,4.5,17.28,0,0,.45,4.77,.08,9.57-1.79,23.05-17.84,37.44-17.84,37.44-14.88,13.34-32.38,13.72-36.96,13.66-19.92-.24-37.62-11.44-46.37-25.88-6.49-10.71-7.72-22.67-7.88-24.27-.5-5.29-.14-9.49,.08-11.49,1.06-9.6,4.4-16.92,6.83-21.29-1.69,3.89-3.78,9.97-4.34,17.68-.58,8.03,.75,14.58,1.93,18.72,5.02,17.66,18.84,26.81,21.62,28.61,11.59,7.52,23.06,8.41,28.18,8.49,5.11,0,18.81-.66,31.77-10.18,10.02-7.36,14.68-16.34,15.94-19.06,1.82-3.95,4.08-10.06,4.79-17.82,.86-9.39-.91-16.97-2.33-21.46Z"/>
      <path class="cls-1" d="M79.55,109.41c-2.52-1.17-4.29-2.81-5.97-4.5-1.97-1.98-4.76-5.2-7.47-9.95-.8,1.08-1.61,2.16-2.41,3.24-.01-.44-.11-1.73-1.01-2.91-.64-.84-1.39-1.24-1.79-1.41-.77-.23-1.74-.44-2.87-.5-.85-.05-1.61,0-2.25,.08-.68,1.89-1.56,4-2.72,6.23-1.46,2.8-3.01,5.13-4.43,7,.12,0,2.65,.25,3.73,2.46,.82,1.68,.22,3.29,.11,3.57-2.62,.6-6.47,1.81-10.59,4.36-4.13,2.56-6.93,5.48-8.64,7.56,.58,1.8,1.43,4.07,2.68,6.59,1.25,2.52,2.35,4.21,3.86,6.48,3.33,5.04,5.05,7.6,8.12,9.63,1.41,.94,2.68,1.51,3.53,1.84,0-1.18,.02-2.37,.03-3.55,.68-1.42,1.44-2.48,2.04-3.21,.77-.94,2.06-2.49,4.22-3.57,1-.5,1.82-.72,3.39-1.15,1.08-.29,1.97-.53,3.21-.64,.84-.07,2.07-.17,3.62,.15,.79,.17,1.95,.5,3.24,1.24,1.14,.89,2.86,2.11,5.11,3.25,2.94,1.5,4.96,2.54,7.69,2.53,2.9-.01,5.12-1.19,7.61-2.53,2.77-1.49,4.16-2.91,6.91-3.9,1.09-.39,2.57-.78,4.34-.71,.44,.02,.77,.06,1.11,.1,1.2,.14,2.81,.46,4.65,1.19,.89,.35,3.12,1.36,5.13,3.65,1.14,1.3,1.82,2.58,2.22,3.48,.17,1.22,.34,2.44,.5,3.66,.9-.48,2.02-1.13,3.26-2,.18-.13,2.29-1.63,4.14-3.52,1.69-1.73,3-3.61,5.94-9.17,1.27-2.39,2.86-5.51,4.61-9.21-1.07-1.32-2.56-2.98-4.5-4.71-.97-.87-2.8-2.48-5.25-3.96-2.04-1.23-5.49-2.97-10.34-3.85,.02-.59,.14-2.11,1.21-3.59,1.33-1.83,3.21-2.34,3.73-2.46-1.42-1.87-2.97-4.2-4.43-7-1.16-2.23-2.04-4.34-2.72-6.23-.64-.08-1.4-.13-2.25-.08-1.13,.06-2.11,.27-2.87,.5-.4,.17-1.15,.57-1.79,1.41-.9,1.18-.99,2.46-1.01,2.91-.8-1.08-1.61-2.16-2.41-3.24-2.71,4.62-5.46,7.86-7.47,9.95-1.67,1.74-3.46,3.34-5.97,4.5-2.35,1.08-3.91,1.12-4.43,1.12-.52,0-2.04-.05-4.35-1.12Z"/>
      <g id="letras">
        <path class="cls-1" d="M14.66,56.07l2.68,4.18c-1.28,3.44-2.56,6.87-3.84,10.31-.16,.49-.06,.95,.17,1.08,.27,.15,.87-.07,1.16-.73,1.19-3.12,2.39-6.24,3.58-9.37,1.29-2.1,3.84-3.02,6.05-2.25,1.97,.69,3.33,2.6,3.38,4.77-1.39,4.68-2.79,9.36-4.18,14.04l-3.43-3.11,3.32-10.82c.02-.52-.22-.95-.56-1.07-.39-.14-.78,.15-.91,.24-.33,.24-.47,.56-.78,1.39-.25,.68-.37,1.02-.48,1.34-.27,.8-.55,1.6-.82,2.4-1.42,4.2-2.18,6.29-3.79,7.57-.48,.38-2.23,1.8-4.15,1.28-1.41-.38-2.19-1.61-2.25-1.71-.5-.82-.55-1.63-.59-2.2,0-.15-.06-.94,.16-1.88,.36-1.54,2.36-7.47,5.28-15.46Z"/>
        <path class="cls-1" d="M27.84,44.69l-5.04-2.97,3.13-3.98,12.58,9.64-2.49,3.33-4.58-3.38c-.72,.9-1.47,1.92-2.21,3.05-.86,1.31-1.57,2.57-2.17,3.74,1.62,.87,3.24,1.74,4.86,2.61l-1.85,3.62-14.71-5.71,2.45-4.66,5.14,2.41c.72-1.35,1.55-2.78,2.49-4.26,.8-1.24,1.6-2.4,2.38-3.46Z"/>
        <path class="cls-1" d="M33.78,29.21c2.13-2.24,5.32-5.6,9.44-5.05,2.28,.3,3.76,1.65,4.21,2.07,2.38,2.23,3.02,5.63,2.37,8.34-.59,2.44-2.12,3.87-3.68,5.33-1.6,1.5-3.63,3.4-6.79,3.7-.78,.07-4.24,.39-6.83-2.21-.12-.12-2.61-2.71-2.21-6.35,.27-2.44,1.67-3.91,3.5-5.83Zm1.11,5.31c-.29,1.17,.02,2.59,.93,3.62,1.45,1.63,3.64,1.26,3.93,1.21,.95-.18,1.86-1.02,3.65-2.69,1.55-1.44,2.33-2.18,2.55-3.02,.31-1.17,.09-2.73-.96-3.82-1.5-1.56-3.7-1.14-3.95-1.08-.92,.19-1.86,1.08-3.72,2.85-2.14,2.03-2.33,2.57-2.42,2.94Z"/>
        <path class="cls-1" d="M60.97,17.13l1.61-5.34c-1.04,.39-2.42,.9-4.06,1.53-4.31,1.64-4.98,1.99-5.63,2.39-1.71,1.05-3.42,2.1-4.38,4.2-1.54,3.36,.06,6.7,.24,7.07,1.33,2.68,3.67,3.78,4.42,4.1,2.06,.86,3.9,.68,4.54,.6,1.76-.2,2.45-.8,5.6-2.02,1.55-.6,2.84-1.02,3.69-1.28-.98-3.32-1.96-6.64-2.93-9.96-1.89,.72-3.87,1.54-5.91,2.45-1.88,.85-3.67,1.71-5.34,2.57,1.35,.83,2.71,1.66,4.06,2.49l4.58-1.82,.56,1.26c-.43,.19-1.11,.5-1.93,.88-1.1,.52-1.39,.67-1.89,.84-.54,.18-1.35,.38-2.41,.4-.14-.02-2.35-.35-3.25-2.33-.72-1.58-.31-3.52,1.05-4.78,1.03-.6,2.21-1.22,3.53-1.81,1.38-.61,2.68-1.08,3.86-1.45Z"/>
        <path class="cls-1" d="M63.3,11.78c.47-.26,1.06-.54,1.77-.76,1.05-.33,1.99-.42,2.68-.43,.46,3.27,1.08,5.92,1.61,7.88,.44,1.63,.86,2.88,1.99,3.49,.8,.43,1.65,.37,3.16,.26,1.08-.08,2.04-.24,2.79-.86,.99-.82,1.13-2.17,1.16-4.77,.02-1.96-.02-4.49-.25-7.45,.62-.15,1.44-.28,2.41-.27,.85,.01,1.58,.13,2.14,.27v4.12c0,.84,.01,2.02,0,3.43-.02,2.59-.07,3.14-.19,3.74-.15,.76-.46,2.27-1.47,3.55-1.76,2.22-4.68,2.47-6.32,2.62-1.56,.15-4.18,.38-6.32-1.23-.86-.65-1.59-1.55-2.73-4.5-.82-2.13-1.81-5.2-2.41-9.09Z"/>
        <path class="cls-1" d="M84.04,25.96c.41,.13,.98,.25,1.66,.27,.83,.02,1.52-.13,1.98-.27l.48-9c.83,1,1.68,2.09,2.52,3.27,1.67,2.34,3.02,4.6,4.12,6.7,.08,.15,.4,.69,1.02,.86,.76,.2,1.69-.26,2.14-1.18,1.3-4.93,2.61-9.86,3.91-14.79-.56-.31-1.3-.65-2.2-.91-.95-.28-1.8-.39-2.46-.43l-1.88,8.89-7.12-9.54c-.49-.81-1.47-1.19-2.36-.91-.83,.26-1.41,1.04-1.42,1.93l-.4,15.1Z"/>
        <path class="cls-1" d="M109.59,32.98l-3.48-1.5,5.3-11.41-5.3-2.46,4.45-2.89c3.55,1.6,7.75,3.83,12.16,6.96,5.11,3.63,9.02,7.41,11.89,10.61-1.73,.14-3.46,.29-5.2,.43l-6.27-5.3c-.32,.46-.64,.93-.96,1.39,1.1,.71,2.29,1.56,3.51,2.6,1.65,1.39,2.98,2.79,4.04,4.04-1.57,.39-3.14,.79-4.71,1.18l-5.46-4.55-.91,1.39c1.67,1.52,3.34,3.04,5.01,4.55,2.53-.01,5.13-.06,7.79-.16,2.77-.1,5.47-.25,8.09-.43,.26,.04,1.67,.26,2.44,1.47,.48,.76,.48,1.57,.48,1.96,0,.79-.22,1.41-.38,1.77-1.67,3.98-3.34,7.96-5.01,11.95,2.15-.36,4.4-.68,6.75-.94,1.1-.12,2.18-.22,3.24-.31,1.5-.16,2.87,.39,3.43,1.43,.45,.85,.24,1.77,.13,2.22-.31,1.35-1.2,2.15-1.55,2.44-1.57,1.77-3.14,3.54-4.71,5.3,1.57,.35,3.33,.83,5.2,1.5,2.13,.76,3.99,1.61,5.57,2.44,.16,.11,1.05,.8,1.15,1.96,.1,1.16-.64,2.32-1.85,2.84-4.21,1.58-8.43,3.16-12.64,4.74-.33-.51-.79-1.36-1.02-2.49-.18-.88-.16-1.63-.11-2.17,2.45-1,4.89-2,7.34-3-2.96-.95-5.92-1.89-8.87-2.84-.14-.07-.84-.41-1.14-1.23-.38-1.03,.21-1.92,.27-2.01,1.7-2.04,3.39-4.09,5.09-6.13l-8.46,1.34c-.64-.58-1.42-1.41-2.14-2.52-.57-.88-.96-1.72-1.23-2.41,.41-1.02,.82-2.04,1.23-3.05l-5.3-7.23,5.79-.05,1.39,2.06,1.34-3.83-13.34,.75-9.8-8.46,6.75-10.5-3.96-2.2-6,10.77Z"/>
      </g>
      <path class="cls-1" d="M81.5,158.71l2.13-1.35,2.13,1.35c-.14-.92-.28-1.84-.42-2.76,.65-.59,1.3-1.19,1.94-1.78h-2.57l-1.07-2.75-.87,2.71h-2.56c.57,.61,1.15,1.22,1.72,1.82-.14,.92-.29,1.84-.43,2.76Z"/>
      <path class="cls-1" d="M62.55,155.32l2.46-.56,1.55,1.99c.18-.91,.35-1.83,.53-2.74,.81-.34,1.62-.69,2.43-1.03l-2.42-.86-.09-2.95-1.73,2.26-2.41-.85c.34,.76,.68,1.52,1.01,2.28-.44,.82-.89,1.64-1.33,2.46Z"/>
      <path class="cls-1" d="M105.18,155.34l-2.46-.56-1.55,1.99c-.18-.91-.35-1.83-.53-2.74-.81-.34-1.62-.69-2.43-1.03l2.42-.86,.09-2.95,1.73,2.26,2.41-.85c-.34,.76-.68,1.52-1.01,2.28,.44,.82,.89,1.64,1.33,2.46Z"/>
      <g>
        <circle class="cls-3" cx="120.06" cy="110.62" r="1.75"/>
        <path class="cls-2" d="M119.46,111.39c0-.55-.01-1.1-.02-1.66,.12-.05,.32-.11,.57-.11,.25,0,.48-.01,.64,.15,.16,.16,.16,.39,.16,.48,0,.1,0,.21-.08,.31-.07,.09-.17,.13-.21,.14,.12,.13,.2,.26,.24,.34,.07,.14,.14,.28,.08,.37-.05,.07-.16,.08-.18,.08-.01,0-.11,0-.18-.07-.05-.05-.04-.08-.1-.23-.05-.13-.08-.2-.15-.24-.07-.05-.16-.04-.18-.04-.03,0-.12,0-.19,.08-.06,.06-.07,.14-.08,.26-.01,.09,0,.12-.04,.16-.03,.04-.09,.06-.14,.06-.09,0-.13-.09-.14-.09Zm.73-1.44c-.11-.05-.29-.08-.37,0-.03,.03-.02,.06-.02,.29,0,.21,0,.23,.02,.26,.08,.1,.28,.07,.4,0,.05-.02,.19-.09,.21-.23,.02-.16-.14-.28-.24-.33Z"/>
      </g>
      <g>
        <path d="M83.63,34.64c1.06,4.25,2.2,7.82,3.18,10.61,2.02,5.74,3.42,8.3,4.98,10.49,.69,.97,1.32,1.73,1.77,2.25-1.05,2.16-1.94,3.89-2.58,5.09-.62,1.18-1.2,2.39-1.8,3.59-.46,.9-1,1.97-1.39,3.5-.12,.46-.19,.85-.23,1.12,0,0,0,0,0,0,0,0-.09,.52-.17,1.08-.05,.4-.27,4.11-.45,9.19,1.56,.37,4.6,1.32,7.42,3.91,1.85,1.69,2.95,3.49,3.58,4.74,1.23-2.79,2.46-5.57,3.7-8.36,.48-1.59,.61-2.93,.64-3.86,0-.16,.06-3.06-1.21-5.18-.26-.44-.58-.85-1.04-.92-.4-.07-.77,.14-1.33,.44-.44,.24-.78,.5-1,.68-.06-.57-.08-1.38,.1-2.32,.16-.85,.43-1.53,.67-2.02,.56-1.06,1.24-1.63,1.64-1.91,1.24-.86,2.59-.93,4.14-1.02,.92-.05,1.68,0,2.17,.04,1.97-1.56,4.77-3.43,8.44-4.86,3.48-1.36,6.43-1.83,7.96-2.01,1.99-.24,3.71-.25,5.02-.2-2.28,1.16-5.16,2.92-8.08,5.54-3.91,3.52-6.34,7.2-7.79,9.84-2.26,5.21-4.37,9.47-6.03,12.66-2.14,4.12-3.59,6.52-5.38,9-1.25,1.73-2.47,3.39-4.46,5.3-1.54,1.48-3.84,3.65-7.47,5.22-2,.87-3.78,1.28-4.99,1.49"/>
        <path d="M83.63,34.64c-1.06,4.25-2.2,7.82-3.18,10.61-2.02,5.74-3.42,8.3-4.98,10.49-.69,.97-1.32,1.73-1.77,2.25,1.05,2.16,1.94,3.89,2.58,5.09,.62,1.18,1.2,2.39,1.8,3.59,.46,.9,1,1.97,1.39,3.5,.12,.46,.19,.85,.23,1.12,0,0,0,0,0,0,0,0,.09,.52,.17,1.08,.05,.4,.27,4.11,.45,9.19-1.56,.37-4.6,1.32-7.42,3.91-1.85,1.69-2.95,3.49-3.58,4.74-1.23-2.79-2.46-5.57-3.7-8.36-.48-1.59-.61-2.93-.64-3.86,0-.16-.06-3.06,1.21-5.18,.26-.44,.58-.85,1.04-.92,.4-.07,.77,.14,1.33,.44,.44,.24,.78,.5,1,.68,.06-.57,.08-1.38-.1-2.32-.16-.85-.43-1.53-.67-2.02-.56-1.06-1.24-1.63-1.64-1.91-1.24-.86-2.59-.93-4.14-1.02-.92-.05-1.68,0-2.17,.04-1.97-1.56-4.77-3.43-8.44-4.86-3.48-1.36-6.43-1.83-7.96-2.01-1.99-.24-3.71-.25-5.02-.2,2.28,1.16,5.16,2.92,8.08,5.54,3.91,3.52,6.34,7.2,7.79,9.84,2.26,5.21,4.37,9.47,6.03,12.66,2.14,4.12,3.59,6.52,5.38,9,1.25,1.73,2.47,3.39,4.46,5.3,1.54,1.48,3.84,3.65,7.47,5.22,2,.87,3.78,1.28,4.99,1.49"/>
      </g>
      <polygon class="cls-1" points="81.49 102.26 83.67 100.11 85.75 102.36 83.62 106.27 81.49 102.26"/>
      <polygon class="cls-1" points="82.56 97.83 83.61 98.98 84.69 97.83 83.66 44.46 82.56 97.83"/>
      <path d="M79.13,108.89c-2.61-1.13-4.44-2.72-6.17-4.35-2.03-1.92-4.93-5.03-7.73-9.63-.83,1.04-1.66,2.09-2.49,3.13-.02-.43-.12-1.67-1.04-2.81-.66-.81-1.44-1.2-1.85-1.37-.79-.22-1.8-.42-2.97-.48-.88-.04-1.67,0-2.33,.08-.7,1.83-1.61,3.87-2.81,6.03-1.51,2.71-3.11,4.96-4.58,6.78,.51,.1,2.46,.55,3.86,2.38,1.75,2.3,1.21,4.92,1.12,5.3-2.8,.75-6.83,2.2-11.01,5.14-2.78,1.96-4.85,4.04-6.34,5.79,1.28,3.28,3.15,7.27,5.94,11.49,3.16,4.78,6.52,8.4,9.32,11.01-.03-.7-.05-1.39-.08-2.09,.39-1.13,1.21-3,2.89-4.82,1.97-2.12,4.14-3.1,5.3-3.54,1.65-.5,3.66-.97,5.96-1.25,2.42-.29,4.57-.3,6.35-.2,.95,1.22,2.65,3.11,5.28,4.66,1.59,.93,4.26,2.46,7.96,2.45,3.73-.01,6.4-1.58,7.88-2.45,2.62-1.54,4.31-3.41,5.28-4.66,1.78-.1,3.93-.1,6.35,.2,2.3,.28,4.31,.75,5.96,1.25,1.17,.43,3.33,1.41,5.3,3.54,1.69,1.82,2.5,3.69,2.89,4.82-.03,.7-.05,1.39-.08,2.09,2.8-2.6,6.16-6.23,9.32-11.01,2.79-4.22,4.67-8.21,5.94-11.49-1.49-1.74-3.57-3.83-6.34-5.79-4.18-2.94-8.21-4.39-11.01-5.14-.09-.38-.62-3,1.12-5.3,1.39-1.83,3.35-2.28,3.86-2.38-1.47-1.81-3.07-4.06-4.58-6.78-1.2-2.16-2.11-4.2-2.81-6.03-.66-.08-1.45-.12-2.33-.08-1.17,.06-2.18,.26-2.97,.48-.41,.17-1.19,.55-1.85,1.37-.93,1.14-1.03,2.38-1.04,2.81-.83-1.04-1.66-2.09-2.49-3.13-2.81,4.47-5.65,7.6-7.73,9.63-1.73,1.69-3.58,3.23-6.17,4.35-2.43,1.05-4.05,1.09-4.58,1.08-.53,0-2.11-.05-4.5-1.08Z"/>
      <path class="cls-1" d="M87.59,128.19c-.48-.13-2.23-.53-2.89-.84-.45-.2-.85-.47-.85-.47-.08-.05-.16-.1-.22-.15,0-.35,.02-.69,.02-1.04,.66,.02,1.21-.03,1.61-.08,1.11-.15,1.29-.37,1.37-.48,.18-.27,.23-.71,.03-.96-.01-.01-.18-.23-.4-.21-.09,0-.15,.05-.35,.19-.16,.11-.3,.2-.38,.26-.17,.11-.54,.34-1.06,.36-.8,.04-1.35-.43-1.48-.54-.26-.79-.57-1.93-.69-3.32-.13-1.45-.43-4.69,.86-5.33,1.25-.63,2.35,2.05,5.46,2.17,1.6,.06,3.91-.55,4.98-.99,0,0,.92-.38,1.9-.54,.5-.08,.92-.08,1.12-.08,.29,0,.44,0,.57,.03,.55,.15,.9,.74,1.02,1.07,.31,.89-.47,1.76-1.04,2.81-.41,.75-.65,1.95-1.12,4.37-.79,3.99-.36,4.88-1.29,7.04-.52,1.23-1.17,2.13-1.61,2.68-.78,.56-1.94,1.33-3.46,2.06-2.67,1.3-4.2,2.1-6.21,1.9-1.94-.19-3.28-1.18-4.68-2.22-1.05-.78-2.2-1.65-2.63-3.17-.13-.45-.4-1.39,.05-2.22,.23-.42,.69-.92,2.69-1.46,2.3-.62,4.12-.63,4.12-.63,1.53,0,4.12,.19,7.29,1.39-1.06-1-2.02-1.41-2.71-1.6Zm-5.89-2.12c-.16-.33-.56-.42-.62-.43l-1.31-.32c-.43-.18-.57-.44-.61-.54-.03-.06-.06-.17-.06-.64,0-.3,.02-.55,.03-.72,.04-.7,.08-1.4,.12-2.09-.04-.77-.25-2.22-1.33-3.24-.25-.24-.97-.86-4.26-1.29-1.09-.14-2.58-.28-4.37-.29-.07-.01-.51-.08-.8,.21-.2,.2-.22,.47-.24,.7-.03,.38,.08,.69,.16,.86,.32,.4,.82,.99,1.5,1.63,.92,.87,1.43,.97,2.17,1.74,.22,.23,.87,.94,1.34,2.01,.49,1.12,.27,1.47,.88,3.62,.3,1.03,.52,1.53,.99,1.77,.4,.2,.8,.16,1.29,.03,1.77-.49,3.76-1.41,4.63-1.82,.48-.28,.66-.81,.48-1.18Zm-15.51-11.54c-.3,1.88-.54,4.62-.12,7.88,.35,2.7,1.22,9.48,6.71,14.54,1.54,1.42,5.36,4.94,10.89,4.98,8.2,.06,13.22-7.59,13.94-8.68,2.96-4.51,3.39-9.3,3.62-11.89,.23-2.7,.06-4.99-.16-6.63,.07,3.21-.29,5.84-.64,7.67-.54,2.81-1.22,6.19-3.55,9.81-.9,1.41-2.12,3.25-4.38,4.93-1.14,.84-4.19,3.03-8.62,3.05-4.91,.03-8.26-2.61-9.32-3.48-1.47-1.2-2.32-2.36-3.11-3.43-2.71-3.69-3.66-7.25-4.23-9.48-.56-2.16-1.14-5.35-1.02-9.27Z"/>
      <path class="cls-1" d="M65.39,108.41c.49,1.56,1.12,3.6,2.79,4.29,.61,.25,1.27,.2,2.57,.11,1.95-.14,3.39-.57,3.64-.64,1.45-.42,5.14-1.5,8.73-1.6,2.94-.08,5.5,.51,6.55,.75,1.41,.33,2.77,.8,5.29,1.28,2.82,.53,3.4,.38,3.8,.21,1.87-.77,2.65-3.06,3.11-4.39,.41-1.19,.54-2.24,.59-2.95,.25,.83,.83,3.09-.16,5.57-.3,.77-1,2.51-2.73,3.43-1.35,.71-2.67,.54-5.25,.16-2.47-.36-3.41-.85-6.05-1.42-2.08-.45-3.8-.64-4.87-.74-2.58,.23-4.63,.62-6.01,.92-2.08,.47-3.98,1.05-6.91,1.29-2.38,.19-3.12-.04-3.7-.4-1.45-.92-1.82-2.72-2.09-3.99-.39-1.89-.16-3.56,.16-4.77,.04,.68,.16,1.7,.54,2.89Z"/>
      <path d="M81.12,130.86c.05-.15,.43-.07,1.93-.07,1.46,0,1.78-.07,1.82,.05,.08,.25-.98,1.06-2.1,.98-.92-.07-1.72-.73-1.65-.96Z"/>
      <path class="cls-1" d="M49.05,143.77c-.24-1.16-.48-2.82-.48-4.82,0-6.55,2.71-11.31,3.75-13.09,3.76-6.44,9.15-9.64,11.63-10.9v4.44c-2.22,.87-6.06,2.73-9.35,6.6-6.14,7.19-5.69,15.79-5.54,17.78Zm69.22,0c.24-1.16,.48-2.82,.48-4.82,0-6.55-2.71-11.31-3.75-13.09-3.76-6.44-9.15-9.64-11.63-10.9v4.44c2.22,.87,6.06,2.73,9.35,6.6,6.14,7.19,5.69,15.79,5.54,17.78Z"/>
    </g>
  </g>
</svg>